:SAMPLES-PER-SECOND 30
:FULLY-SPECIFIED
:DEGREES
72
root  12.5304 37.0053 2.48597 14.5345 -81.6235 -24.1907
RightUpLeg  -4.09661 -9.67449 -14.8203
RightLeg  32.3752 -8.25726 -5.85429
RightFoot  -7.38855 -0.682411 18.2225
RightToes  -5.28226e-011 1.30204e-014 -6.03759e-014
Spine  15.6216 -0.346827 2.7052
Spine1  2.83744 -0.244619 2.0039
HEad  -10.4584 -3.22708 -2.42684
LeftShoulder1  2.02709 -3.76397 -21.5325
LeftArm  10.4077 11.5549 -52.7098
LeftForeArm  -10.5062 -29.3444 -6.89765
LeftHand  -0.564357 2.20177 20.3446
RightShoulder  1.52429 2.28018 20.0053
RightArm  -11.6791 -13.0734 45.5504
RightForeArm  3.34583 14.2171 9.15526
RightHand  -0.669896 0.128191 -14.1257
LeftUpLeg  -7.60903 3.6804 23.3054
LeftLeg  36.1712 2.25215 2.12852
LeftFoot  -10.3077 0.282048 -23.9268
LeftToes  -2.75829e-010 5.07641e-011 -5.51782e-011
73
root  12.3954 36.9896 3.11951 15.7582 -81.8129 -25.9848
RightUpLeg  -2.75985 -10.3385 -16.3068
RightLeg  31.0294 -6.98366 -4.75497
RightFoot  -6.25847 -0.960357 20.3319
RightToes  -5.28226e-011 1.30204e-014 -6.03759e-014
Spine  15.4458 0.227288 1.29331
Spine1  3.62982 -0.424614 3.97016
HEad  -10.4181 -3.21479 -3.65052
LeftShoulder1  1.97402 -3.57591 -21.5237
LeftArm  9.23593 11.9127 -53.9754
LeftForeArm  -6.65862 -33.3368 -7.76615
LeftHand  -0.639489 2.28916 23.8073
RightShoulder  1.47414 2.05226 20.2005
RightArm  -11.437 -15.8565 42.6527
RightForeArm  -7.48821 19.3459 6.70273
RightHand  -0.84753 0.903654 -15.6951
LeftUpLeg  -6.23993 3.78708 22.52
LeftLeg  36.1569 1.9235 1.88083
LeftFoot  -12.9003 -0.246673 -23.5351
LeftToes  -2.75829e-010 5.07641e-011 -5.51782e-011
74
root  12.3362 37.2524 3.79833 16.6406 -82.7894 -26.7391
RightUpLeg  -3.35161 -11.5054 -18.428
RightLeg  30.8261 -4.58823 -3.16926
RightFoot  -1.39372 -2.0405 22.9278
RightToes  -5.28226e-011 1.30204e-014 -6.03759e-014
Spine  15.4561 1.05137 -0.482745
Spine1  3.1309 -0.291238 5.23761
HEad  -9.51271 -3.2789 -4.22999
LeftShoulder1  1.96269 -3.64008 -21.0895
LeftArm  7.84862 12.121 -55.1888
LeftForeArm  -5.65792 -35.7338 -8.39464
LeftHand  -0.612996 2.62971 25.5595
RightShoulder  1.41463 1.84115 20.1327
RightArm  -13.6661 -19.89 40.0742
RightForeArm  -14.4114 24.4809 5.76123
RightHand  -1.04946 1.47635 -17.8028
LeftUpLeg  -4.79534 4.79735 21.2125
LeftLeg  34.7707 1.94241 1.8167
LeftFoot  -13.5985 -0.377521 -22.9136
LeftToes  -2.75829e-010 5.07641e-011 -5.51782e-011
75
root  12.377 37.7242 4.45276 26.219 -84.9554 -35.544
RightUpLeg  -6.77049 -12.2678 -20.1256
RightLeg  31.8131 -0.412349 -0.515585
RightFoot  8.40856 -4.02142 23.2852
RightToes  -5.28226e-011 1.30204e-014 -6.03759e-014
Spine  15.5778 1.54501 -1.58393
Spine1  1.92195 0.00332788 4.93285
HEad  -8.72326 -1.88937 -4.07145
LeftShoulder1  1.88402 -3.61721 -19.9969
LeftArm  5.35119 12.6091 -55.3837
LeftForeArm  -7.032 -36.6719 -8.7506
LeftHand  -0.571458 2.89413 26.3146
RightShoulder  1.34022 1.63226 19.736
RightArm  -18.2492 -23.3268 39.2764
RightForeArm  -16.6244 28.5119 7.0032
RightHand  -1.22455 1.48648 -20.6715
LeftUpLeg  -3.38778 6.74081 20.2558
LeftLeg  32.4869 2.31748 1.95918
LeftFoot  -11.9309 -0.0487103 -23.6722
LeftToes  -2.75829e-010 5.07641e-011 -5.51782e-011
76
root  12.4546 38.3435 4.96681 55.5547 -86.8239 -63.7483
RightUpLeg  -11.068 -11.621 -20.5333
RightLeg  30.6914 3.63609 2.05801
RightFoot  17.8859 -5.3504 20.8136
RightToes  -5.28226e-011 1.30204e-014 -6.03759e-014
Spine  15.7274 1.21467 -2.70051
Spine1  0.347375 -0.36757 4.45975
HEad  -8.56996 1.77409 -3.52513
LeftShoulder1  1.74746 -3.44462 -18.5921
LeftArm  2.28332 13.556 -53.9933
LeftForeArm  -10.0521 -35.4874 -8.56718
LeftHand  -0.613389 2.79646 27.1725
RightShoulder  1.25164 1.38558 19.2076
RightArm  -20.951 -25.7507 40.4535
RightForeArm  -19.1499 32.7021 8.2341
RightHand  -1.36736 1.31158 -23.5735
LeftUpLeg  -2.11347 8.7359 19.8756
LeftLeg  29.4117 2.61749 1.95987
LeftFoot  -8.69784 0.646923 -25.3462
LeftToes  -2.75829e-010 5.07641e-011 -5.51782e-011
77
root  12.5458 39.1073 5.36267 91.7229 -86.4906 -98.8118
RightUpLeg  -13.7879 -9.20794 -19.8865
RightLeg  25.4004 3.443 1.67462
RightFoot  20.7417 -4.88745 17.3354
RightToes  -5.28226e-011 1.30204e-014 -6.03759e-014
Spine  16.1732 -0.302099 -4.11459
Spine1  -1.45312 -2.07619 5.79276
HEad  -8.65724 7.40909 -2.85275
LeftShoulder1  1.67627 -3.48193 -17.3524
LeftArm  -0.690975 15.5216 -50.6815
LeftForeArm  -15.408 -32.182 -7.90187
LeftHand  -0.681098 2.56243 27.6954
RightShoulder  1.10055 0.92447 18.3939
RightArm  -21.5247 -27.1151 42.8898
RightForeArm  -21.0698 36.6407 9.4726
RightHand  -1.46794 1.27077 -25.4097
LeftUpLeg  -0.810604 9.60242 19.9033
LeftLeg  25.102 3.64459 2.18281
LeftFoot  -4.58266 1.59409 -26.1788
LeftToes  -2.75829e-010 5.07641e-011 -5.51782e-011
78
root  12.6862 39.8522 5.64778 100.24 -85.1243 -106.448
RightUpLeg  -15.2319 -5.42854 -19.0357
RightLeg  18.1578 -3.00591 -1.36319
RightFoot  19.2152 -3.48202 13.1895
RightToes  -5.28226e-011 1.30204e-014 -6.03759e-014
Spine  17.3407 -3.0929 -6.0597
Spine1  -3.21725 -5.31381 8.53664
HEad  -8.64592 15.2121 -2.05764
LeftShoulder1  1.75095 -4.11434 -16.2615
LeftArm  -2.777 20.2429 -45.0785
LeftForeArm  -23.233 -28.3739 -7.22689
LeftHand  -0.695618 2.36951 26.4483
RightShoulder  0.846258 0.090518 16.9811
RightArm  -20.17 -26.1099 47.0996
RightForeArm  -22.0701 38.0063 9.95987
RightHand  -1.40504 0.833159 -25.9884
LeftUpLeg  0.448843 9.63543 20.1756
LeftLeg  20.1659 5.53496 2.69567
LeftFoot  -0.262364 2.53667 -25.7637
LeftToes  -2.75829e-010 5.07641e-011 -5.51782e-011
79
root  12.8885 40.3593 5.77937 105.571 -83.8403 -111.177
RightUpLeg  -17.4238 -3.42147 -17.7417
RightLeg  12.7418 -8.34312 -3.32986
RightFoot  19.2466 -2.59007 9.96485
RightToes  -5.28226e-011 1.30204e-014 -6.03759e-014
Spine  19.2517 -6.5629 -8.92541
Spine1  -4.61762 -9.47789 11.2358
HEad  -8.93229 25.4082 -1.05821
LeftShoulder1  1.99228 -5.28213 -15.8985
LeftArm  -1.65455 28.378 -36.9499
LeftForeArm  -31.2681 -24.8309 -6.8057
LeftHand  -0.707679 1.84508 23.0596
RightShoulder  0.585422 -0.866178 15.5961
RightArm  -18.1846 -22.5922 52.9502
RightForeArm  -23.1195 37.0708 9.70944
RightHand  -1.23475 0.0308935 -26.1899
LeftUpLeg  1.5567 10.9075 20.7235
LeftLeg  16.0705 6.38301 3.14034
LeftFoot  3.27401 3.2531 -25.1487
LeftToes  -2.75829e-010 5.07641e-011 -5.51782e-011
80
root  13.1222 40.5563 5.76911 119.853 -82.1977 -125.41
RightUpLeg  -20.8271 -5.10556 -15.3386
RightLeg  10.0803 -5.53854 -3.03371
RightFoot  22.1022 -3.05713 10.6271
RightToes  -5.28226e-011 1.30204e-014 -6.03759e-014
Spine  21.4985 -9.12158 -12.8094
Spine1  -5.22617 -13.0412 13.6299
HEad  -9.82422 35.9526 0.215569
LeftShoulder1  2.30248 -6.25713 -16.9179
LeftArm  1.69945 36.8998 -27.3971
LeftForeArm  -33.4083 -19.6158 -7.77722
LeftHand  -0.784687 0.556685 18.9037
RightShoulder  0.411592 -1.56799 14.6054
RightArm  -14.6326 -18.692 58.3081
RightForeArm  -24.6981 36.5416 9.61379
RightHand  -1.20381 -0.228014 -26.7756
LeftUpLeg  3.09359 13.0502 21.5499
LeftLeg  13.6527 6.68989 3.40891
LeftFoot  5.02 3.60816 -24.9546
LeftToes  -2.75829e-010 5.07641e-011 -5.51782e-011
81
root  13.3248 40.3938 5.64188 135.735 -79.5404 -142.267
RightUpLeg  -23.8876 -5.63762 -13.1334
RightLeg  9.64853 -1.37336 -1.48281
RightFoot  25.5095 -4.41947 13.7624
RightToes  -5.28226e-011 1.30204e-014 -6.03759e-014
Spine  23.5813 -9.71369 -17.2358
Spine1  -4.67008 -14.9379 15.5159
HEad  -11.0577 43.873 1.53461
LeftShoulder1  2.38691 -6.37477 -17.5405
LeftArm  0.0554569 43.0071 -19.7116
LeftForeArm  -23.9813 -11.7515 -10.909
LeftHand  -0.849912 -0.849514 15.872
RightShoulder  0.254187 -2.22017 12.982
RightArm  -8.06508 -15.0056 62.3496
RightForeArm  -24.5107 36.0683 9.46074
RightHand  -1.26792 -0.00636216 -27.0508
LeftUpLeg  5.40192 14.5834 22.6879
LeftLeg  13.709 7.79417 3.70827
LeftFoot  3.90393 3.35613 -24.8971
LeftToes  -2.75829e-010 5.07641e-011 -5.51782e-011
82
root  13.5144 39.9332 5.49359 142.077 -76.7396 -150.292
RightUpLeg  -25.3868 -5.082 -11.624
RightLeg  10.6959 -0.241344 -0.715514
RightFoot  27.6592 -5.20218 15.1931
RightToes  -5.28226e-011 1.30204e-014 -6.03759e-014
Spine  25.1916 -9.11824 -20.1717
Spine1  -2.93373 -15.5085 15.9332
HEad  -13.1295 47.7245 1.6723
LeftShoulder1  2.10404 -5.80074 -15.833
LeftArm  -2.38051 47.2501 -16.7087
LeftForeArm  -14.8546 -6.03545 -11.5563
LeftHand  -0.814719 -0.915112 15.1165
RightShoulder  0.111186 -2.87011 11.0345
RightArm  -2.90566 -11.8629 65.8796
RightForeArm  -19.6918 35.2256 8.95527
RightHand  -1.19295 -0.138493 -26.0972
LeftUpLeg  7.13436 14.7391 24.18
LeftLeg  16.5392 9.35302 4.21703
LeftFoot  0.246748 2.53977 -24.6929
LeftToes  -2.75829e-010 5.07641e-011 -5.51782e-011
83
root  13.7498 39.3211 5.39022 138.372 -76.3336 -147.628
RightUpLeg  -25.3627 -4.67557 -12.2093
RightLeg  12.5542 -2.39698 -1.06307
RightFoot  28.3667 -4.91831 14.125
RightToes  -5.28226e-011 1.30204e-014 -6.03759e-014
Spine  26.1854 -8.24097 -19.4
Spine1  -1.25077 -14.7386 14.1818
HEad  -16.5094 45.8163 -0.188628
LeftShoulder1  1.67119 -4.82436 -13.0227
LeftArm  -5.29678 47.1297 -17.1537
LeftForeArm  -12.1872 -4.87519 -10.4882
LeftHand  -0.716937 0.45357 16.9178
RightShoulder  0.138456 -2.69668 10.4788
RightArm  -6.74761 -14.2725 67.5465
RightForeArm  -12.4669 39.0509 9.89574
RightHand  -1.02908 -0.533368 -24.3916
LeftUpLeg  5.45569 12.6136 25.1256
LeftLeg  21.9502 10.4344 5.01817
LeftFoot  -4.08472 1.59469 -24.4311
LeftToes  -2.75829e-010 5.07641e-011 -5.51782e-011
84
root  13.9794 38.6044 5.31467 126.058 -79.0961 -134.822
RightUpLeg  -24.3105 -5.67527 -15.9096
RightLeg  15.0343 -4.91321 -1.77108
RightFoot  28.2332 -4.3903 12.7207
RightToes  -5.28226e-011 1.30204e-014 -6.03759e-014
Spine  26.1904 -6.61139 -13.9878
Spine1  -1.20525 -11.3091 9.79278
HEad  -18.697 35.4004 -1.64297
LeftShoulder1  1.24288 -2.97699 -12.1527
LeftArm  -10.6304 35.4156 -18.1391
LeftForeArm  -14.7776 -4.25679 -9.60759
LeftHand  -0.595946 2.05587 20.5596
RightShoulder  0.457854 -1.08736 11.822
RightArm  -18.0323 -26.0646 65.4661
RightForeArm  -12.1912 49.5811 14.1825
RightHand  -0.922575 -0.727207 -22.8502
LeftUpLeg  -0.595526 8.64045 24.1698
LeftLeg  29.2438 10.2258 6.48787
LeftFoot  -7.75879 0.810571 -24.1084
LeftToes  -2.75829e-010 5.07641e-011 -5.51782e-011
85
root  14.1055 37.7606 5.25977 102.251 -82.7558 -109.673
RightUpLeg  -22.4266 -7.75878 -21.9113
RightLeg  18.6357 -5.43147 -2.22654
RightFoot  28.9237 -4.00507 11.4759
RightToes  -5.28226e-011 1.30204e-014 -6.03759e-014
Spine  25.3069 -3.28724 -4.54249
Spine1  -2.23128 -4.42471 1.33969
HEad  -17.8214 16.0859 -0.185116
LeftShoulder1  0.760007 0.00280226 -15.1543
LeftArm  -16.5806 10.9038 -19.3138
LeftForeArm  -22.2274 -2.74208 -9.27092
LeftHand  -0.311103 3.92605 24.8937
RightShoulder  1.1978 1.65319 16.3128
RightArm  -26.1806 -41.9899 58.7661
RightForeArm  -21.2711 55.8763 18.2598
RightHand  -0.814292 -0.995346 -21.1646
LeftUpLeg  -8.02357 3.38011 21.4877
LeftLeg  36.8751 10.1709 8.47653
LeftFoot  -10.9474 0.147614 -23.7009
LeftToes  -2.75829e-010 5.07641e-011 -5.51782e-011
86
root  14.1465 36.7827 5.18684 65.5812 -84.6488 -72.7123
RightUpLeg  -19.1306 -9.41753 -28.3519
RightLeg  23.1238 -3.39416 -1.77766
RightFoot  32.3963 -3.86361 10.1801
RightToes  -5.28226e-011 1.30204e-014 -6.03759e-014
Spine  25.642 1.47288 6.26527
Spine1  -2.07644 4.47262 -9.77351
HEad  -16.952 -7.65316 2.88649
LeftShoulder1  0.248027 2.56102 -19.0633
LeftArm  -20.2302 -13.5979 -26.6976
LeftForeArm  -31.1646 -4.43226 -9.65676
LeftHand  0.301443 6.54234 29.6535
RightShoulder  2.20592 3.98565 23.4112
RightArm  -20.8751 -53.2491 46.1975
RightForeArm  -31.7137 49.2829 15.2134
RightHand  -0.604376 -1.1752 -16.8539
LeftUpLeg  -13.0884 -0.395047 18.9668
LeftLeg  43.5819 9.36129 9.80421
LeftFoot  -14.5047 -0.574714 -23.5661
LeftToes  -2.75829e-010 5.07641e-011 -5.51782e-011
